<svg width="500" height="250" viewBox="0 0 500 250" fill="none" xmlns="http://www.w3.org/2000/svg">
<path d="M247.531 165.828L166.359 247H83.5308V167H3.53076V84.1719L84.7026 3H247.531V165.828ZM410.907 195.375C410.907 200.687 410.907 206.5 409.469 214.438H416.969V220.875H394.782V243.875H386.782V220.875H365.094V214.438H401.407C402.844 207.094 402.969 201.531 402.969 196.625H371.032V190.25H410.907V195.375ZM166.359 167H87.5308V243H164.703L243.531 164.172V89.8281L166.359 167ZM303.968 236.438H335.093V242.812H295.968V224.375H303.968V236.438ZM474.094 230.625H496.469V237H444.407V230.625H466.157V217.75H474.094V230.625ZM333.718 228.562H325.781V215.062H312.781C310.031 217.969 306.062 219.75 301.656 219.75C293.031 219.75 286.468 213.5 286.531 205.062C286.468 196.5 293.031 190.313 301.656 190.25C306.062 190.281 310 192.031 312.781 194.938H325.781V187H333.718V228.562ZM474.344 194.25C474.344 202.375 481.657 210.938 494.657 212.938L491.282 219.562C481.282 217.75 473.844 212.406 470.094 205.312C466.344 212.375 458.969 217.781 449.032 219.562L445.657 212.938C458.531 210.937 465.782 202.312 465.844 194.25V190.188H474.344V194.25ZM301.656 197.375C297.218 197.375 294.031 200.25 294.093 205.062C294.031 209.812 297.218 212.687 301.656 212.688C305.843 212.688 309.093 209.812 309.093 205.062C309.093 200.25 305.843 197.375 301.656 197.375ZM316.218 201.312C316.5 202.5 316.656 203.75 316.656 205.062C316.656 206.312 316.5 207.531 316.218 208.688H325.781V201.312H316.218ZM7.53076 85.8281V163H83.5308V84.1719L160.703 7H86.3589L7.53076 85.8281ZM90.3589 163H164.703L240.703 87H166.359L90.3589 163ZM87.5308 85.8281V160.172L163.531 84.1719V9.82812L87.5308 85.8281ZM383.156 146.594H415.156V152.969H375.156V135.344H383.156V146.594ZM337.593 147.094H285.531V140.594H337.593V147.094ZM496.218 147.031H444.156V140.469H496.218V147.031ZM413.718 139.344H406.156V119.719H401.218V138.156H393.781V98.1562H401.218V113.281H406.156V97.1562H413.718V139.344ZM388.781 119.406H374.843V125.219C381.062 125.188 385.687 124.906 391.093 123.844L391.781 130.156C385.156 131.344 379.531 131.531 371.093 131.531H367.156V113.531H381.093V107.969H367.093V101.719H388.781V119.406ZM299.031 110.156H323.843V100.719H331.781V131.094H291.031V100.719H299.031V110.156ZM490.093 108.281H458.156V123.406H490.531V129.781H450.281V101.844H490.093V108.281ZM299.031 124.844H323.843V116.344H299.031V124.844ZM167.531 83H243.531V7H167.531V83ZM412.468 64H404.406V7H412.468V64ZM331.468 17.375H299.656V32.4375H331.906V38.75H315.406V50.875H337.593V57.375H285.531V50.875H307.468V38.75H291.656V11H331.468V17.375ZM386.968 19.875C386.968 30.3125 391.718 40.8125 401.343 44.875L396.656 51.25C390.156 48.3125 385.656 42.6562 383.093 35.625C380.5 43.2812 375.843 49.4688 368.906 52.625L364.093 46C374.031 41.8125 378.843 30.9375 378.906 19.875V11.375H386.968V19.875Z" fill="black"/>
</svg>
