<svg width="84" height="84" viewBox="0 0 84 84" fill="none" xmlns="http://www.w3.org/2000/svg">
<circle cx="42" cy="42" r="42" fill="black"/>
<path d="M62.6602 21.6885V36.2246L62.6699 36.2344V50.7705L62.499 51.1816L47.9629 65.7178L47.5518 65.8887H33.0156L32.4238 65.2969V51.3418H18.4688L17.8867 50.7598V36.2236L18.0576 35.8125L32.5938 21.2764L33.0049 21.1055H62.0771L62.6602 21.6885ZM47.9521 51.1709L47.541 51.3418H33.5977V64.7148H47.3018L61.4961 50.5205V37.627L47.9521 51.1709ZM34.4482 50.1777H47.3008L60.6621 36.8164H48.0361L34.4482 50.1777ZM19.0508 36.4668V50.1777H32.4238V36.2246L32.5947 35.8135L46.1387 22.2695H33.4893L19.0508 36.4668ZM33.5879 36.4648V49.3545L46.959 35.9834V23.0938L33.5879 36.4648ZM48.123 22.2705V35.6523H61.4951V22.2705H48.123Z" fill="white"/>
<path d="M62.6602 21.6885H63.242L63.0716 21.277L62.6602 21.6885ZM62.6602 36.2246H62.0783L62.2487 36.636L62.6602 36.2246ZM62.6699 36.2344H63.2518L63.0814 35.8229L62.6699 36.2344ZM62.6699 50.7705L63.2072 50.9938L63.2518 50.7705H62.6699ZM62.499 51.1816L62.9105 51.5931L63.0363 51.405L62.499 51.1816ZM47.9629 65.7178L48.1862 66.2551L48.3743 66.1292L47.9629 65.7178ZM47.5518 65.8887V66.4705L47.7751 66.426L47.5518 65.8887ZM33.0156 65.8887L32.6042 66.3001L33.0156 66.4705V65.8887ZM32.4238 65.2969H31.842L32.0124 65.7083L32.4238 65.2969ZM32.4238 51.3418H33.0057L32.4238 50.7599V51.3418ZM18.4688 51.3418L18.0573 51.7532L18.4688 51.9237V51.3418ZM17.8867 50.7598H17.3049L17.4753 51.1712L17.8867 50.7598ZM17.8867 36.2236L17.3494 36.0003L17.3049 36.2236H17.8867ZM18.0576 35.8125L17.6462 35.4011L17.5203 35.5892L18.0576 35.8125ZM32.5938 21.2764L32.3704 20.7391L32.1823 20.8649L32.5938 21.2764ZM33.0049 21.1055V20.5236L32.7815 20.5682L33.0049 21.1055ZM62.0771 21.1055L62.4886 20.694L62.0771 20.5236V21.1055ZM47.9521 51.1709L48.1755 51.7082L48.3636 51.5823L47.9521 51.1709ZM47.541 51.3418V51.9237L47.7644 51.8791L47.541 51.3418ZM33.5977 51.3418V50.7599L33.0158 51.3418H33.5977ZM33.5977 64.7148H33.0158L33.5977 65.2967V64.7148ZM47.3018 64.7148V65.2967L47.7132 65.1263L47.3018 64.7148ZM61.4961 50.5205L61.9075 50.9319L62.0779 50.5205H61.4961ZM61.4961 37.627H62.0779L61.0847 37.2155L61.4961 37.627ZM34.4482 50.1777L34.0403 49.7629L34.4482 50.7596V50.1777ZM47.3008 50.1777V50.7596L47.7122 50.5892L47.3008 50.1777ZM60.6621 36.8164L61.0735 37.2278L60.6621 36.2345V36.8164ZM48.0361 36.8164V36.2345L47.6282 36.4015L48.0361 36.8164ZM19.0508 36.4668L18.6428 36.0519L18.4689 36.4668H19.0508ZM19.0508 50.1777H18.4689L19.0508 50.7596V50.1777ZM32.4238 50.1777V50.7596L33.0057 50.1777H32.4238ZM32.4238 36.2246L31.8865 36.0013L31.842 36.2246H32.4238ZM32.5947 35.8135L32.1833 35.402L32.0574 35.5901L32.5947 35.8135ZM46.1387 22.2695L46.5501 22.681L46.1387 21.6877V22.2695ZM33.4893 22.2695V21.6877L33.0813 21.8546L33.4893 22.2695ZM33.5879 36.4648L33.1765 36.0534L33.006 36.4648H33.5879ZM33.5879 49.3545H33.006L33.9993 49.7659L33.5879 49.3545ZM46.959 35.9834L47.3704 36.3948L47.5408 35.9834H46.959ZM46.959 23.0938H47.5408L46.5475 22.6823L46.959 23.0938ZM48.123 22.2705V21.6887L47.5412 22.2705H48.123ZM48.123 35.6523H47.5412L48.123 36.2342V35.6523ZM61.4951 35.6523V36.2342L62.077 35.6523H61.4951ZM61.4951 22.2705H62.077L61.4951 21.6887V22.2705ZM62.6602 21.6885H62.0783V36.2246H62.6602H63.242V21.6885H62.6602ZM62.6602 36.2246L62.2487 36.636L62.2585 36.6458L62.6699 36.2344L63.0814 35.8229L63.0716 35.8132L62.6602 36.2246ZM62.6699 36.2344H62.0881V50.7705H62.6699H63.2518V36.2344H62.6699ZM62.6699 50.7705L62.1326 50.5472L61.9617 50.9583L62.499 51.1816L63.0363 51.405L63.2072 50.9938L62.6699 50.7705ZM62.499 51.1816L62.0876 50.7702L47.5515 65.3063L47.9629 65.7178L48.3743 66.1292L62.9105 51.5931L62.499 51.1816ZM47.9629 65.7178L47.7396 65.1805L47.3284 65.3514L47.5518 65.8887L47.7751 66.426L48.1862 66.2551L47.9629 65.7178ZM47.5518 65.8887V65.3068H33.0156V65.8887V66.4705H47.5518V65.8887ZM33.0156 65.8887L33.4271 65.4772L32.8353 64.8854L32.4238 65.2969L32.0124 65.7083L32.6042 66.3001L33.0156 65.8887ZM32.4238 65.2969H33.0057V51.3418H32.4238H31.842V65.2969H32.4238ZM32.4238 51.3418V50.7599H18.4688V51.3418V51.9237H32.4238V51.3418ZM18.4688 51.3418L18.8802 50.9304L18.2982 50.3483L17.8867 50.7598L17.4753 51.1712L18.0573 51.7532L18.4688 51.3418ZM17.8867 50.7598H18.4686V36.2236H17.8867H17.3049V50.7598H17.8867ZM17.8867 36.2236L18.424 36.447L18.5949 36.0358L18.0576 35.8125L17.5203 35.5892L17.3494 36.0003L17.8867 36.2236ZM18.0576 35.8125L18.4691 36.2239L33.0052 21.6878L32.5938 21.2764L32.1823 20.8649L17.6462 35.4011L18.0576 35.8125ZM32.5938 21.2764L32.8171 21.8137L33.2282 21.6428L33.0049 21.1055L32.7815 20.5682L32.3704 20.7391L32.5938 21.2764ZM33.0049 21.1055V21.6873H62.0771V21.1055V20.5236H33.0049V21.1055ZM62.0771 21.1055L61.6657 21.5169L62.2487 22.0999L62.6602 21.6885L63.0716 21.277L62.4886 20.694L62.0771 21.1055ZM47.9521 51.1709L47.7288 50.6336L47.3177 50.8045L47.541 51.3418L47.7644 51.8791L48.1755 51.7082L47.9521 51.1709ZM47.541 51.3418V50.7599H33.5977V51.3418V51.9237H47.541V51.3418ZM33.5977 51.3418H33.0158V64.7148H33.5977H34.1795V51.3418H33.5977ZM33.5977 64.7148V65.2967H47.3018V64.7148V64.133H33.5977V64.7148ZM47.3018 64.7148L47.7132 65.1263L61.9075 50.9319L61.4961 50.5205L61.0847 50.1091L46.8903 64.3034L47.3018 64.7148ZM61.4961 50.5205H62.0779V37.627H61.4961H60.9142V50.5205H61.4961ZM61.4961 37.627L61.0847 37.2155L47.5407 50.7595L47.9521 51.1709L48.3636 51.5823L61.9075 38.0384L61.4961 37.627ZM34.4482 50.1777V50.7596H47.3008V50.1777V49.5959H34.4482V50.1777ZM47.3008 50.1777L47.7122 50.5892L61.0735 37.2278L60.6621 36.8164L60.2507 36.405L46.8893 49.7663L47.3008 50.1777ZM60.6621 36.8164V36.2345H48.0361V36.8164V37.3983H60.6621V36.8164ZM48.0361 36.8164L47.6282 36.4015L34.0403 49.7629L34.4482 50.1777L34.8562 50.5926L48.4441 37.2313L48.0361 36.8164ZM19.0508 36.4668H18.4689V50.1777H19.0508H19.6326V36.4668H19.0508ZM19.0508 50.1777V50.7596H32.4238V50.1777V49.5959H19.0508V50.1777ZM32.4238 50.1777H33.0057V36.2246H32.4238H31.842V50.1777H32.4238ZM32.4238 36.2246L32.9611 36.4479L33.132 36.0368L32.5947 35.8135L32.0574 35.5901L31.8865 36.0013L32.4238 36.2246ZM32.5947 35.8135L33.0062 36.2249L46.5501 22.681L46.1387 22.2695L45.7272 21.8581L32.1833 35.402L32.5947 35.8135ZM46.1387 22.2695V21.6877H33.4893V22.2695V22.8514H46.1387V22.2695ZM33.4893 22.2695L33.0813 21.8546L18.6428 36.0519L19.0508 36.4668L19.4587 36.8817L33.8972 22.6844L33.4893 22.2695ZM33.5879 36.4648H33.006V49.3545H33.5879H34.1697V36.4648H33.5879ZM33.5879 49.3545L33.9993 49.7659L47.3704 36.3948L46.959 35.9834L46.5475 35.572L33.1765 48.9431L33.5879 49.3545ZM46.959 35.9834H47.5408V23.0938H46.959H46.3771V35.9834H46.959ZM46.959 23.0938L46.5475 22.6823L33.1765 36.0534L33.5879 36.4648L33.9993 36.8763L47.3704 23.5052L46.959 23.0938ZM48.123 22.2705H47.5412V35.6523H48.123H48.7049V22.2705H48.123ZM48.123 35.6523V36.2342H61.4951V35.6523V35.0705H48.123V35.6523ZM61.4951 35.6523H62.077V22.2705H61.4951H60.9133V35.6523H61.4951ZM61.4951 22.2705V21.6887H48.123V22.2705V22.8524H61.4951V22.2705Z" fill="white"/>
</svg>
