<svg width="18" height="27" viewBox="0 0 18 27" fill="none" xmlns="http://www.w3.org/2000/svg">
<path d="M16.221 26.6912L1.89681 26.9998L2.15365 26.0994L16.4788 25.7918L16.221 26.6912Z" fill="black"/>
<path fill-rule="evenodd" clip-rule="evenodd" d="M14.5286 1.79767C16.5353 -0.0196329 17.4329 -0.305012 17.8714 0.261538C18.3992 0.945925 17.1867 3.45375 16.2298 4.73322C14.6318 6.87051 12.5072 7.87287 12.5072 7.87287C12.5072 7.87287 13.5283 8.19584 11.9613 9.94123C8.54571 13.7456 7.80414 15.0032 7.07943 16.2147C6.70574 16.8391 6.84214 16.9078 6.91537 16.8113C9.8151 13.7127 12.4106 11.9354 14.557 11.9354C15.9668 11.9355 16.7941 12.737 16.7943 14.1336C16.7942 17.4711 12.1925 20.5728 10.5755 21.3006C7.50061 22.6839 4.52688 22.9636 3.60091 23.0194C3.41965 23.0304 3.31486 23.0335 3.30599 23.034C3.30599 23.034 2.75572 23.2281 2.56966 24.3348C2.46781 24.9398 2.17159 25.2025 0.757165 25.8309C0.583048 25.9081 0.398721 25.9898 0.204431 26.0779C0.0491544 26.1485 -0.0801698 26.0419 0.0598994 25.7938C0.107016 25.7107 0.855547 24.3863 1.87142 22.5858C1.37452 22.3419 0.98059 22.0417 0.768884 21.8152L1.02572 21.3504C1.43639 21.6517 1.83777 21.8531 2.20931 21.9871C4.30942 18.2639 7.26076 13.0171 7.76791 12.0428C9.82075 8.09742 12.0336 4.05653 14.5286 1.79767ZM13.8421 13.0389C13.4482 13.0389 12.9391 13.1903 12.4085 13.4656L12.3206 13.5115C7.47724 15.9613 3.73817 22.1529 3.68978 22.2342C3.72632 22.2333 3.75955 22.2311 3.79232 22.2293C4.36383 22.1809 7.20377 21.8791 9.75033 20.5135C11.9564 19.3302 14.4676 16.8724 14.7669 14.2733C14.8153 13.8534 14.7468 13.5336 14.5638 13.3221C14.4017 13.1345 14.159 13.0389 13.8421 13.0389ZM16.4808 1.3006C16.4612 1.31779 12.48 4.81345 9.70541 10.6639C9.45544 11.1231 10.8851 9.60892 11.4076 8.85236C11.6235 8.53974 11.4997 8.39109 11.4691 8.35627C11.3089 8.17163 11.2424 7.88769 11.6273 7.60627C15.5025 4.77647 17.0742 1.01949 16.4808 1.3006Z" fill="black"/>
</svg>
