<svg width="50" height="50" viewBox="0 0 50 50" fill="none" xmlns="http://www.w3.org/2000/svg">
<path d="M49.0723 1.5V17.1914L49.0703 17.1953V32.8867L48.9238 33.2402L33.2334 48.9316L32.8799 49.0781H17.1885L16.6885 48.5781V48.5713L16.6875 48.5703V33.3828H1.5L1 32.8828V17.1914L1.14648 16.8379L16.8369 1.14648L17.1904 1H48.5723L49.0723 1.5ZM33.2354 33.2363L32.8818 33.3828H17.6885V48.0703H32.6709L48.0693 32.6719V18.4014L33.2354 33.2363ZM18.4043 32.3828H32.6748L47.3691 17.6875H33.3496L18.4043 32.3828ZM2 17.4004V32.3828H16.6885V17.1953L16.835 16.8418L31.6768 2H17.6621L2 17.4004ZM17.6885 17.4023V31.6768L32.3818 16.9844V2.70898L17.6885 17.4023ZM33.3818 2.00391V16.6875H48.0703V2.00391H33.3818Z" fill="white"/>
</svg>
