<svg xmlns="http://www.w3.org/2000/svg" style="display:none">
    <symbol id="logo_urbanbrand" viewBox="0 0 50 50">
        <path d="M49.1113 1.5V17.1914L49.1094 17.1953V32.8867L48.9629 33.2402L33.2725 48.9316L32.9189 49.0781H17.2275L16.7275 48.5781V48.5713L16.7266 48.5703V33.3828H1.53906L1.03906 32.8828V17.1914L1.18555 16.8379L16.876 1.14648L17.2295 1H48.6113L49.1113 1.5ZM33.2744 33.2363L32.9209 33.3828H17.7275V48.0703H32.71L48.1084 32.6719V18.4014L33.2744 33.2363ZM18.4434 32.3828H32.7139L47.4082 17.6875H33.3887L18.4434 32.3828ZM2.03906 17.4004V32.3828H16.7275V17.1953L16.874 16.8418L31.7158 2H17.7012L2.03906 17.4004ZM17.7275 17.4023V31.6768L32.4209 16.9844V2.70898L17.7275 17.4023ZM33.4209 2.00391V16.6875H48.1094V2.00391H33.4209Z" fill="currentColor"/>
    </symbol>
</svg>
