<svg width="240" height="90" viewBox="0 0 240 90" fill="none" xmlns="http://www.w3.org/2000/svg">
<path d="M41.5481 34.49C42.819 33.6478 41.6611 30.1603 44.6917 31.0255C44.8766 31.0783 45.7155 31.1597 45.9297 31.2267C46.3136 31.651 46.9382 32.5162 47.2974 32.9237C48.1901 33.937 47.7667 34.5342 47.9267 35.7235C47.7267 36.8933 46.8695 39.0483 46.5314 40.293C46.0688 42.0199 45.6252 43.7554 45.1437 45.4756C44.8674 46.4626 43.5348 49.6757 44.156 50.4638C46.3069 52.0195 54.8322 49.1049 59.4498 54.3511C59.6383 55.0962 59.7788 56.292 59.35 56.9896C57.8796 59.4367 55.6146 61.4966 54.0093 63.8751C52.27 66.4521 50.4117 68.9711 48.8031 71.626C56.3282 75.1024 57.0299 78.0319 51.2389 84.3303C48.6965 87.0954 42.9831 89.0472 40.425 85.9C34.3497 78.425 45.6356 65.8173 49.9205 59.7042C50.5463 58.8114 52.3886 56.7299 52.4066 55.9082C51.8749 55.6251 48.1732 55.7333 47.2421 55.6911C42.9749 55.5485 38.0401 51.9243 37.9464 47.5109C37.874 44.0999 38.9909 40.967 40.3661 37.8962C40.8299 36.8606 41.0254 35.5271 41.5481 34.49ZM44.6183 83.1524C46.677 82.1981 48.6103 80.0416 49.298 77.8956C49.5259 77.1845 49.8624 76.3184 49.0474 75.8709L48.5213 75.8683C47.5594 76.115 46.0722 76.5133 45.4151 77.6774C45.0048 78.4044 43.2971 82.1028 43.8278 83.142C43.8866 83.2571 44.4147 83.1811 44.6183 83.1524Z" fill="black"/>
<path d="M41.5481 34.4907C41.7677 33.4715 42.1459 31.0544 42.9589 30.4139C43.7508 29.7901 45.9154 30.6435 46.6531 31.2001C48.1275 32.3123 48.3516 34.0419 47.9266 35.7242C47.7666 34.5349 48.19 33.9377 47.2973 32.9244C46.9381 32.5169 46.3135 31.6517 45.9296 31.2274C45.7154 31.1604 44.8766 31.079 44.6916 31.0262C41.6611 30.161 42.819 33.6486 41.5481 34.4907Z" fill="black" fill-opacity="0.952941"/>
<path d="M80.9766 40.7285C80.9816 41.3791 81.0097 42.1729 80.9297 42.8059L80.8371 42.3703C80.7633 42.4528 80.7162 42.4701 80.6209 42.5292L80.4392 42.3262C80.3603 41.8637 80.483 41.694 80.6957 41.2813L80.7115 41.3614C80.9575 41.1225 80.8914 41.121 80.9766 40.7285Z" fill="black" fill-opacity="0.152941"/>
<path d="M80.4852 44.9209C81.1262 45.3131 80.9932 45.5754 80.9765 46.2648C80.6906 46.3452 80.8004 46.3495 80.5389 46.2838C80.3393 45.9171 80.4473 45.3556 80.4852 44.9209Z" fill="black" fill-opacity="0.160784"/>
<path d="M118.889 42.6821C119.434 41.6342 119.972 40.1632 120.493 39.2544C122.173 36.3271 124.343 33.1633 127.29 31.3442C128.103 30.8418 129.032 30.464 129.889 30.0398C130.823 29.5784 131.66 28.7729 132.671 28.4817C135.912 27.5486 139.704 27.102 142.798 28.7127C145.999 30.3798 148.644 34.7929 147.926 38.386C147.862 38.7054 147.723 39.1817 147.905 39.3984C149.387 39.6445 150.629 36.5291 152.566 37.086C158.504 38.7931 156.959 41.2072 155.113 45.2443C153.142 49.5565 151.605 52.5432 147.941 55.7319C146.617 56.8667 144.314 56.5805 143.876 58.7029C143.807 59.0441 143.745 59.3864 143.688 59.7296C146.401 59.7474 149.2 58.9977 151.896 58.7837C154.379 58.5933 156.877 58.6358 159.364 58.5199C162.293 58.3833 165.047 57.9629 167.988 58.275C170.447 58.5358 173.109 58.106 175.612 58.0434C182.716 57.8335 189.894 57.9551 196.961 57.1063C200.359 56.6621 203.939 57.0159 207.33 56.6634C217.198 55.6381 227.159 56.7545 237.052 55.9642C238.296 55.8649 237.884 54.1691 239.947 56.1979L240 56.2511V59.8743C232.88 60.7556 225.969 60.3956 218.835 60.1774C215.047 60.0615 210.937 60.5393 207.121 60.4846C205.597 60.4628 203.923 60.9048 202.4 60.9999C197.04 61.3347 191.714 62.0919 186.336 62.203C183.316 62.2593 180.342 62.7961 177.345 62.9133C174.864 63.0103 172.355 62.9576 169.866 63.0407C164.554 63.2376 159.25 63.5688 153.956 64.0337C150.932 64.3116 147.609 65.1876 144.58 65.5789C142.973 65.7864 141.582 65.21 140.338 64.274C138.568 62.9434 138.293 60.2495 138.625 58.2425C138.645 57.6577 138.997 56.128 138.853 55.6216C137.838 52.0529 137.374 51.5432 139.001 47.8388C141.252 42.7149 143.9 37.696 142.559 31.8859C137.844 30.7895 131.994 34.1079 129.06 37.5347C128.709 37.9804 127.65 38.8157 127.418 39.2882C126.005 42.1693 123.179 45.0553 122.139 48.041C121.15 48.3473 119.37 48.6076 118.338 48.4969C117.248 48.3797 117.219 48.3326 116.623 47.6165C115.905 49.7628 115.33 51.9653 114.588 54.107C114.272 55.0174 114.084 55.9527 113.745 56.8548C114.498 56.8944 115.379 56.9039 116.091 57.1166C117.001 58.0105 118.861 58.5092 119.616 59.9084C120.117 60.8398 119.719 61.1836 120.186 61.8858C119.478 63.5031 118.601 65.0194 117.771 66.5816C116.433 69.1021 115.604 72.6966 111.829 71.7864C107.527 70.7493 107.516 65.2767 107.375 61.8628C103.76 58.0378 108.113 59.1514 108.571 55.3129C108.841 53.0491 111.758 46.5802 111.742 44.7071L111.509 44.6208C110.182 44.7005 108.713 46.7448 107.752 47.6584C103.952 51.2713 101.831 56.1246 98.2282 59.8677C96.6133 61.5452 95.0439 63.346 93.2857 64.879C91.5286 65.0597 89.7888 64.0301 89.1527 62.3203C89.0726 62.1892 89.1183 61.4548 89.1935 61.3699C91.4161 58.9838 93.2311 56.3815 95.2183 53.8283C96.436 52.264 97.7146 50.8702 98.864 49.1822C99.9658 47.5645 101.591 46.1159 102.684 44.4587C101.164 45.2551 99.0463 45.7754 97.4085 46.5357C95.3865 47.4745 93.411 48.8271 91.5609 50.0708C90.8382 50.5566 89.8926 51.5175 89.1565 52.0226C88.2372 52.6533 87.4415 52.9853 86.6168 53.7671C86.0489 56.7344 86.4214 60.0218 85.1985 62.8937C84.117 65.4334 82.6474 68.844 79.9613 70.126C77.3648 71.3652 74.7326 67.5797 73.8937 67.2609C73.7407 67.4618 73.4694 68.532 73.3812 68.8445C70.8424 69.0102 69.5114 67.9747 68.7928 65.5629C67.8996 62.5647 68.2118 59.2124 67.9348 56.116C67.8073 54.6913 68.053 53.2842 68.0406 51.8623C68.0443 49.9974 67.0006 46.9304 67.9981 45.2949C68.7355 44.3141 70.5054 44.9011 71.3185 45.4892C74.4739 47.7708 74.2974 51.7537 74.3319 55.1912C74.3405 56.0384 74.1702 57.0065 74.3073 57.8476L74.422 57.9001C75.3622 57.169 76.0938 55.8537 76.9537 55.1316C78.5087 53.826 79.6427 52.5258 81.0151 51.0609C81.1936 49.9893 81.1189 48.2999 81.1243 47.2093C81.1353 45.015 81.0425 42.7837 81.1454 40.5917L81.1849 40.5834C85.7402 39.625 85.8943 43.528 86.4923 46.6388C89.9421 44.6855 93.5679 42.2354 97.4039 41.2872C98.6913 40.969 101.14 41.0322 102.165 41.9338C102.871 42.5551 102.823 42.8458 103.875 43.5029C105.084 42.0887 108.059 39.5567 109.853 39.0689C113.594 38.052 116.189 39.1108 117.384 42.6694C117.645 44.3942 117.031 44.8967 117.15 46.0341L117.272 46.0792C117.777 45.4627 117.633 45.2127 117.86 44.8479C118.484 43.8476 118.676 43.8966 118.889 42.6821ZM113.143 64.9944C113.518 64.4215 115.091 61.9035 115.09 61.3679C114.802 61.1266 114.551 61.1526 114.137 61.1874L114.075 61.1929C113.928 61.2256 113.346 61.3605 113.245 61.4273C112.293 62.058 112.143 64.4145 112.395 65.4017C112.61 65.3555 112.943 65.1203 113.143 64.9944ZM77.8078 65.3458C78.6677 64.8034 80.0313 60.9383 79.8678 59.9831L79.7782 59.8868C78.8644 61.0758 76.7765 63.9335 77.8078 65.3458Z" fill="black"/>
<path d="M0 54.8686C0.971789 53.4926 4.02257 50.56 5.37657 49.5719C7.89601 47.7332 12.0731 45.4331 15.22 44.9898C22.2851 43.9944 24.6667 47.3619 24.232 53.7163C23.7292 61.0696 21.6141 67.0839 19.6492 74.0993C19.348 75.2062 19.3509 77.2558 19.0628 78.1175C18.5614 78.278 17.5712 78.2434 17.1 77.9603C12.0056 74.8994 15.8272 65.9839 16.4341 61.3047C16.7429 58.9246 19.5793 50.6611 18.5317 48.8297C18.1008 48.652 16.8489 49.2758 16.3384 49.4298C12.1434 50.6955 9.04543 53.6968 6.02535 56.6292C4.62957 57.9844 3.98984 59.4172 2.15801 60.1235C1.52646 59.9663 0.503955 59.7631 0 59.4114V54.8686Z" fill="black"/>
<path d="M160 2H160.46L160.486 2.02766C161.899 3.48313 164.733 3.75309 164.671 6.59616C164.637 8.14433 162.217 9.31749 161.063 10.2202C159.182 11.6916 157.309 13.1996 155.288 14.4619C154.404 14.99 153.511 15.4441 152.672 16.0386C151.922 16.0483 152.026 15.9482 151.478 16.4768C150.769 16.7195 150.383 16.3828 149.753 16.3863C149.377 16.3885 147.907 17.2352 148.195 16.1312C148.302 15.725 148.283 15.7374 148.09 15.381C150.179 12.4851 153.063 9.51843 155.354 6.73674C156.541 5.29471 159.005 3.45906 160 2Z" fill="black"/>
<path d="M152.672 16.0385C151.809 16.8259 151.288 16.9002 150.13 17.123C149.282 17.2864 147.94 17.6167 147.202 17.1356C146.831 16.3993 147.548 15.8176 148.09 15.3809C148.283 15.7372 148.302 15.7249 148.195 16.131C147.907 17.235 149.377 16.3883 149.753 16.3861C150.383 16.3826 150.769 16.7194 151.478 16.4766C152.026 15.948 151.922 16.0481 152.672 16.0385Z" fill="black" fill-opacity="0.929412"/>
<path d="M116.091 57.1172C118.256 57.4917 119.205 58.4352 120.525 60.0232C120.595 60.8369 120.525 61.0946 120.186 61.8864C119.719 61.1842 120.117 60.8404 119.616 59.909C118.861 58.5098 117.001 58.0111 116.091 57.1172Z" fill="black" fill-opacity="0.956863"/>
<path d="M117.384 42.6699C117.581 43.0521 117.772 43.6589 118.065 43.8496C118.466 43.6903 118.683 43.0982 118.889 42.6826C118.676 43.8971 118.484 43.8481 117.86 44.8485C117.633 45.2132 117.777 45.4632 117.272 46.0798L117.15 46.0346C117.031 44.8972 117.645 44.3947 117.384 42.6699Z" fill="black" fill-opacity="0.478431"/>
</svg>
