<svg width="26" height="26" viewBox="0 0 26 26" fill="none" xmlns="http://www.w3.org/2000/svg">
<path d="M14.2836 2.3644e-06C16.6637 2.3644e-06 18.595 -0.00281145 20.1122 0.201247C21.6707 0.410918 23.0074 0.862999 24.0722 1.92875C25.1365 2.99398 25.5889 4.33013 25.7988 5.88875C26.003 7.40581 26 9.33621 26 11.7164V14.2836C26 16.6637 26.0028 18.595 25.7988 20.1122C25.5891 21.6707 25.137 23.0074 24.0713 24.0722C23.006 25.1365 21.6699 25.5889 20.1113 25.7988C18.5942 26.003 16.6638 26 14.2836 26H11.7164C9.33633 26 7.40501 26.0028 5.88781 25.7988C4.32927 25.5891 2.99265 25.137 1.92781 24.0713C0.863511 23.006 0.411077 21.6699 0.201247 20.1113C-0.00296363 18.5942 2.36344e-06 16.6638 2.36344e-06 14.2836V11.7164C2.36163e-06 9.33633 -0.00281174 7.40501 0.201247 5.88781C0.410919 4.32927 0.862998 2.99265 1.92875 1.92781C2.99398 0.86351 4.33013 0.411077 5.88875 0.201247C7.40581 -0.00296397 9.33621 2.36239e-06 11.7164 2.3644e-06H14.2836ZM11.7164 2.88889C9.25504 2.88889 7.55395 2.8925 6.27431 3.06474C5.03617 3.23143 4.4099 3.5321 3.97034 3.97128C3.53143 4.40984 3.23035 5.03505 3.0638 6.27337C2.89168 7.55324 2.88889 9.25468 2.88889 11.7164V14.2836C2.88889 16.745 2.8925 18.4461 3.06474 19.7257C3.23143 20.9638 3.5321 21.5901 3.97128 22.0297C4.40984 22.4686 5.03505 22.7696 6.27337 22.9362C7.55324 23.1083 9.25468 23.1111 11.7164 23.1111H14.2836C16.745 23.1111 18.4461 23.1075 19.7257 22.9353C20.9638 22.7686 21.5901 22.4679 22.0297 22.0287C22.4686 21.5902 22.7696 20.965 22.9362 19.7266C23.1083 18.4468 23.1111 16.7453 23.1111 14.2836V11.7164C23.1111 9.25504 23.1075 7.55395 22.9353 6.27431C22.7686 5.03618 22.4679 4.4099 22.0287 3.97034C21.5902 3.53143 20.965 3.23035 19.7266 3.0638C18.4468 2.89168 16.7453 2.88889 14.2836 2.88889H11.7164ZM13 7.70371C15.9251 7.70371 18.2963 10.0749 18.2963 13C18.2963 15.9251 15.9251 18.2963 13 18.2963C10.0749 18.2963 7.70371 15.9251 7.70371 13C7.70371 10.0749 10.0749 7.70371 13 7.70371ZM13 10.5926C11.6704 10.5926 10.5926 11.6704 10.5926 13C10.5926 14.3296 11.6704 15.4074 13 15.4074C14.3296 15.4074 15.4074 14.3296 15.4074 13C15.4074 11.6704 14.3296 10.5926 13 10.5926ZM18.7778 5.2963C19.8414 5.2963 20.7037 6.15857 20.7037 7.22222C20.7037 8.28588 19.8414 9.14815 18.7778 9.14815C17.7141 9.14815 16.8519 8.28588 16.8519 7.22222C16.8519 6.15857 17.7141 5.2963 18.7778 5.2963Z" fill="black"/>
</svg>
